<?xml version="1.0" encoding="UTF-8"?>
<svg version="1.1" viewBox="0 0 900 900" width="1280" height="1280" xmlns="http://www.w3.org/2000/svg">
<path transform="translate(294,395)" d="m0 0h28l5 5 5 11 3 11 3 20 8 48 5 29 4 30 2 28-4 1-18 1h-18l-3-13-3-20-4-4h-47l-4 1-6 14-8 19-2 2-12 1h-31l-1-2 19-45 15-31 8-16 12-26 12-24 12-29 4-6 5-3zm3 49-7 14-11 28-6 17v5l7 1h23l2-3v-18l-3-39-2-5z" fill="#FEFEFE"/>
<path transform="translate(514,445)" d="m0 0h49l21 3 12 3 1 5-5 37-3 27-5 39-2 10-4 4-15 6-15 3-8 1h-30l-16-3-12-5-9-7-6-9-5-13-1-5v-15l2-17 4-19 4-11 10-15 8-9 10-6 8-3zm22 27-9 2-6 4-8 9-7 14-3 11v17l4 10 7 6 8 3h14l7-1 4-5 2-13 4-37v-14l-4-4z" fill="#FEFEFE"/>
<path transform="translate(462,231)" d="m0 0h55l11 2 11 6 6 5 7 11 3 9v26l-8 65-2 10-4 2h-35l-1-1v-12l7-52 1-9v-19l-4-6-6-4-4-1h-19l-5 2-3 7-5 38-4 33-4 18-9-2-6-1h-16l-10 2 1-11 6-35 7-46 3-21 3-6 5-5 6-3z" fill="#FEFEFE"/>
<path transform="translate(249,188)" d="m0 0h16l1 5-10 65-3 26-3 27v12l1 4 9 2 66 1 1 1-1 26-3 8-64 2h-15l-21-5-11-7-5-7-2-6v-11l4-50 6-42 6-48 1-2z" fill="#FEFEFE"/>
<path transform="translate(684,655)" d="m0 0 30 1 15 1v1l-9 1-24 1-21 2-41 2-42 3-18 2-50 5-42 6-62 11-43 7-45 8-86 19-32 8h-9l-14-7-10-6 1-3 13-5 24-7 40-10 31-6 40-5 46-6 38-6 29-4 54-6 38-3 55-3z" fill="#FEFEFE"/>
<path transform="translate(426,444)" d="m0 0 17 1v18l-2 26-4 27-8 48-5 21-5 12-8 11-4 5h-2v2l-15 11-14 7-7 2h-10l-4-8-6-17 1-5 16-7 11-8 6-10 6-24 4-22 7-51 2-30 1-7 1-1z" fill="#FEFEFE"/>
<path transform="translate(602,179)" d="m0 0h40l1 4-4 29-6 46-6 42-6 43-3 22-7 2h-35l1-13 8-63 7-50 6-41 3-19z" fill="#FEFEFE"/>
<path transform="translate(703,234)" d="m0 0h22l3 1-2 4-9 10-7 8-8 8-7 8-10 11-5 7-1 4 8 15 8 18 21 41 9 17v4h-41l-8-15-9-20-19-38-6-15-3-8v-6l12-15 7-8 9-10 9-11 8-8 2-1z" fill="#FEFEFE"/>
<path transform="translate(363,233)" d="m0 0h40v9l-7 45-8 55-3 20-6 2-34 1-1-3 7-56 4-41 6-30z" fill="#FEFEFE"/>
<path transform="translate(649,419)" d="m0 0h26l1 1-1 15-12 59-8 35-3 2-21 1-3-1-1-3 1-25 8-78 1-5z" fill="#FEFEFE"/>
<path transform="translate(631,554)" d="m0 0h16l6 3 4 5 2 5v9l-3 9-9 10-7 3-6 1-8-2-6-4-4-8-1-4v-8l3-9 6-7z" fill="#FEFEFE"/>
<path transform="translate(389,171)" d="m0 0h7l8 3 5 5 2 5v10l-4 10-7 8-7 4h-12l-8-4-5-6-1-3v-10l4-10 8-8z" fill="#FEFEFE"/>
<path transform="translate(431,380)" d="m0 0h9l8 3 4 7 1 4v7l-3 9-7 8-6 3h-14l-6-3-5-5-2-7 3-12 6-8 8-5z" fill="#FEFEFE"/>
</svg>
