<?xml version="1.0" encoding="UTF-8"?>
<svg version="1.1" viewBox="0 0 900 900" width="1280" height="1280" xmlns="http://www.w3.org/2000/svg">
<path transform="translate(461,4)" d="m0 0h39l26 3 28 6 20 5 36 12 25 10 29 14 19 11 24 16 16 12 10 8 13 11 8 7 28 28 9 11 11 13 13 18 10 14 13 21 12 23 9 17 8 19 9 25 8 28 8 36 2 16 1 20v96l-4 27-8 36-9 30-11 29-11 24-11 21-14 23-11 16-12 16-11 13-9 11-35 35-11 9-13 11-18 13-12 8-14 9-16 9-23 12-25 11-21 8-27 8-34 8-26 4-42 1-6 1h-23l-7-2-46-1-31-6-25-6-26-8-30-11-33-16-25-14-21-14-21-16-9-7-13-11-9-9-3-2v-2l-4-2-16-16-7-8-12-14-14-19-13-18-9-15-9-16-12-23-12-29-12-36-7-30-4-20-2-21 1-10 1-58v-66l8-38 6-20 10-29 11-25 11-22 9-15 13-21 14-20 14-18 9-10 7-8 8-8 7-8 10-9 8-8 11-9 16-13 18-13 19-12 23-13 27-13 26-10 30-10 27-7 36-7h41zm120 268-23 4-21 5-43 14-25 9-48 18-21 8-29 9-29 7-23 4-12 1h-22l-18-2-22-6-15-6-27-14-8-4-7-1-2 10-1 43v201l1 14 3 9 9 8 14 8 17 8 15 5 25 5 13 2 19 1 41-5 25-6 27-8 41-14 36-12 40-13 32-8 24-4 21-2h20l26 3 21 5 20 8 16 8 11 5h7l1-2 1-15v-253l-5-9-9-8-13-8-21-10-21-7-19-4-8-1z" fill="#FBFBFB"/>
</svg>
