<?xml version="1.0" encoding="UTF-8"?>
<svg version="1.1" xmlns="http://www.w3.org/2000/svg" width="256" height="256">
<path d="M0 0 C0.83950699 -0.00511093 1.67901398 -0.01022186 2.54396057 -0.01548767 C5.31795389 -0.02938256 8.09169868 -0.02842682 10.86572266 -0.02612305 C12.79619438 -0.03001035 14.72666525 -0.03434509 16.65713501 -0.03910828 C20.70390596 -0.0465705 24.75058968 -0.04627942 28.79736328 -0.04101562 C33.97807163 -0.0352244 39.15842208 -0.05214363 44.33907127 -0.0753603 C48.32654908 -0.09010795 52.31394094 -0.09096787 56.30144119 -0.08785057 C58.21117486 -0.08836337 60.12091339 -0.09359344 62.03062057 -0.10366249 C64.70424237 -0.116028 67.37717018 -0.10923433 70.05078125 -0.09765625 C71.22926888 -0.10912186 71.22926888 -0.10912186 72.43156433 -0.12081909 C77.23365848 -0.07496008 80.47563718 0.66530602 84.65478516 3.2746582 C89.04807453 7.91201921 90.91283042 12.24635644 90.88183594 18.61572266 C90.88160934 20.17677483 90.88160934 20.17677483 90.88137817 21.7693634 C90.8710556 22.8809935 90.86073303 23.9926236 90.85009766 25.13793945 C90.84726776 26.28505905 90.84443787 27.43217865 90.84152222 28.61405945 C90.83034212 32.27186588 90.80524111 35.92942598 90.77978516 39.5871582 C90.76975257 42.06957654 90.7606272 44.55199872 90.75244141 47.03442383 C90.73040986 53.11458576 90.69695363 59.19460438 90.65478516 65.2746582 C91.75177734 65.39196289 92.84876953 65.50926758 93.97900391 65.63012695 C99.09232678 66.52672448 101.01332112 69.00787453 103.96728516 73.0871582 C105.67368554 78.51661398 105.14277779 82.79867293 102.65478516 87.7746582 C102.00375807 88.95012377 101.3425027 90.12027519 100.65478516 91.2746582 C101.29416016 91.9346582 101.93353516 92.5946582 102.59228516 93.2746582 C105.05959247 96.86346884 105.90008385 99.97375447 105.65478516 104.2746582 C104.86336406 106.74910139 103.7863105 108.92108548 102.65478516 111.2746582 C102.23162554 115.13695884 102.23162554 115.13695884 104.09228516 117.0246582 C106.31955435 120.23192584 106.8050955 123.44532325 106.65478516 127.2746582 C105.86900918 129.75210474 104.78691167 131.91983506 103.65478516 134.2746582 C103.22247419 138.13662413 103.22247419 138.13662413 105.09228516 139.9621582 C107.48714631 143.50655272 107.75064109 147.04962366 107.65478516 151.2746582 C105.90278126 157.23147146 101.64203526 160.0137639 96.65478516 163.2746582 C95.75630859 163.66911133 94.85783203 164.06356445 93.93212891 164.4699707 C91.26725504 166.16475958 91.26725504 166.16475958 91.08837891 169.78637695 C91.07169033 171.1782046 91.07386326 172.57035242 91.09228516 173.9621582 C90.93297846 180.43580291 90.3883379 184.88174868 86.65478516 190.2746582 C81.44291375 195.11425308 77.94354061 195.41011179 71.02978516 195.3371582 C70.22798828 195.33264648 69.42619141 195.32813477 68.60009766 195.32348633 C66.6182951 195.31168988 64.63653082 195.29375425 62.65478516 195.2746582 C62.55552734 196.13961914 62.45626953 197.00458008 62.35400391 197.89575195 C61.59253526 201.57547475 60.35901548 204.10075423 58.46728516 207.3371582 C57.89623047 208.33875977 57.32517578 209.34036133 56.73681641 210.37231445 C53.51987911 214.85671297 50.74032984 217.8892782 45.29165649 218.89611816 C43.4558754 218.8930365 43.4558754 218.8930365 41.58300781 218.88989258 C40.90247849 218.89544159 40.22194916 218.9009906 39.52079773 218.90670776 C37.28608256 218.91845376 35.05341899 218.89427953 32.81884766 218.8684082 C31.25475151 218.86669522 29.69065249 218.86676469 28.1265564 218.86853027 C24.85313327 218.86687976 21.58039721 218.84823649 18.30712891 218.81665039 C14.12874097 218.77703904 9.95125462 218.77259921 5.77271461 218.78011322 C2.54342515 218.78319604 -0.68566487 218.77101497 -3.91490555 218.75398254 C-5.45454276 218.74699138 -6.99420258 218.74382326 -8.53385544 218.74467468 C-23.75500219 218.73188601 -23.75500219 218.73188601 -30.34521484 215.2746582 C-34.96652532 209.82388175 -35.47287231 204.95447497 -35.45874023 198.015625 C-35.4586647 196.77471603 -35.45858917 195.53380707 -35.45851135 194.2552948 C-35.45340556 192.91148844 -35.44818958 191.56768249 -35.44287109 190.22387695 C-35.4410045 188.84096834 -35.43958174 187.45805905 -35.43858337 186.07514954 C-35.43477721 182.44691115 -35.42496327 178.8187132 -35.41387939 175.19049072 C-35.40362429 171.48352607 -35.39907699 167.77655485 -35.39404297 164.06958008 C-35.3833392 156.80458774 -35.36628575 149.53962865 -35.34521484 142.2746582 C-36.43060547 142.30946289 -37.51599609 142.34426758 -38.63427734 142.38012695 C-40.07957427 142.40828209 -41.52488806 142.43558039 -42.97021484 142.4621582 C-43.68306641 142.48729492 -44.39591797 142.51243164 -45.13037109 142.53833008 C-49.95891764 142.60477797 -53.14579726 141.90946417 -57.34521484 139.2746582 C-61.71315852 134.55255693 -62.46933374 131.19690354 -62.50634766 124.87890625 C-62.51379501 123.91247192 -62.51379501 123.91247192 -62.52139282 122.92651367 C-62.53598908 120.79645719 -62.54281261 118.66647522 -62.54833984 116.53637695 C-62.55409394 115.05288186 -62.55985164 113.56938679 -62.56561279 112.08589172 C-62.57611595 108.9747381 -62.58196291 105.86361026 -62.58544922 102.75244141 C-62.59092872 98.77452928 -62.61494767 94.79696033 -62.64342117 90.81915569 C-62.66208755 87.75386067 -62.6672553 84.6886476 -62.6687851 81.62330055 C-62.67180378 80.15733784 -62.67980577 78.6913763 -62.69297028 77.22546959 C-62.71011329 75.16958241 -62.70813096 73.1145243 -62.70166016 71.05859375 C-62.70530579 69.89071823 -62.70895142 68.72284271 -62.71270752 67.51957703 C-62.15224377 62.57074539 -60.48617287 59.33004438 -56.84521484 55.9621582 C-52.59689146 53.09453992 -49.29202067 53.15650798 -44.27099609 53.17700195 C-43.24524727 53.17912437 -43.24524727 53.17912437 -42.19877625 53.18128967 C-40.01837763 53.18687944 -37.83808234 53.19942999 -35.65771484 53.2121582 C-34.17789862 53.21717453 -32.69808078 53.22173721 -31.21826172 53.22583008 C-27.59387928 53.23684549 -23.96955715 53.25410308 -20.34521484 53.2746582 C-20.36092529 52.12989014 -20.37663574 50.98512207 -20.39282227 49.80566406 C-20.44734907 45.53604235 -20.48164734 41.26645109 -20.51000977 36.99658203 C-20.52504472 35.15277928 -20.54547818 33.30901198 -20.5715332 31.46533203 C-20.60815045 28.8066327 -20.62499428 26.1484085 -20.63818359 23.48950195 C-20.65366745 22.67255356 -20.66915131 21.85560516 -20.68510437 21.01390076 C-20.68705014 14.31356318 -19.40610498 9.65260836 -14.90771484 4.4621582 C-10.0457087 0.31166515 -6.29518043 -0.01974883 0 0 Z M-11.34521484 12.2746582 C-12.97767038 16.64497852 -12.97767038 16.64497852 -12.34521484 27.2746582 C19.00478516 27.2746582 50.35478516 27.2746582 82.65478516 27.2746582 C84.00829109 14.89935325 84.00829109 14.89935325 78.65478516 9.2746582 C75.55941837 7.72697481 72.28621667 8.10966263 68.88793945 8.09765625 C68.08613251 8.09108505 67.28432556 8.08451385 66.45822144 8.07774353 C63.79848136 8.0579946 61.13879778 8.04634447 58.47900391 8.03637695 C57.57137613 8.03230143 56.66374836 8.0282259 55.72861671 8.02402687 C50.924793 8.00315942 46.12099792 7.98886058 41.31713867 7.97949219 C36.3536857 7.96842574 31.39068081 7.93402515 26.42738628 7.89432049 C22.61238264 7.86818294 18.79748621 7.85980291 14.98240089 7.85621071 C13.15275865 7.8513374 11.32312142 7.83970227 9.49356651 7.82117271 C6.93195408 7.79684154 4.37150691 7.79773498 1.80981445 7.8046875 C0.67732521 7.78547241 0.67732521 7.78547241 -0.4780426 7.76586914 C-5.37549209 7.81428747 -7.95748641 8.71312779 -11.34521484 12.2746582 Z M-12.34521484 35.2746582 C-12.34521484 41.2146582 -12.34521484 47.1546582 -12.34521484 53.2746582 C2.17478516 53.2746582 16.69478516 53.2746582 31.65478516 53.2746582 C31.98478516 50.3046582 32.31478516 47.3346582 32.65478516 44.2746582 C34.30478516 44.2746582 35.95478516 44.2746582 37.65478516 44.2746582 C38.80374644 46.57258078 38.78049317 47.85712561 38.7817688 50.4119873 C38.78458862 51.27850418 38.78740845 52.14502106 38.79031372 53.03779602 C38.78828949 53.99058945 38.78626526 54.94338287 38.78417969 55.92504883 C38.78593201 56.92674606 38.78768433 57.9284433 38.78948975 58.960495 C38.79390444 62.2839835 38.7909716 65.60741913 38.78759766 68.9309082 C38.7882708 71.23254405 38.78924092 73.53417983 38.79049683 75.83581543 C38.79197328 80.66455765 38.78982091 85.4932814 38.78515625 90.32202148 C38.779459 96.52317017 38.78273828 102.72427557 38.78872871 108.92542267 C38.79233573 113.6796298 38.79119509 118.43382662 38.78860092 123.18803406 C38.78793204 125.47507228 38.78875872 127.76211142 38.79108047 130.04914856 C38.79360928 133.24088029 38.78976314 136.43254115 38.78417969 139.62426758 C38.78620392 140.577061 38.78822815 141.52985443 38.79031372 142.51152039 C38.7874939 143.37803726 38.78467407 144.24455414 38.7817688 145.1373291 C38.78139177 145.8924453 38.78101475 146.64756149 38.7806263 147.42556 C38.65478516 149.2746582 38.65478516 149.2746582 37.65478516 151.2746582 C36.00478516 151.2746582 34.35478516 151.2746582 32.65478516 151.2746582 C32.15978516 146.8196582 32.15978516 146.8196582 31.65478516 142.2746582 C17.13478516 142.2746582 2.61478516 142.2746582 -12.34521484 142.2746582 C-12.34521484 148.2146582 -12.34521484 154.1546582 -12.34521484 160.2746582 C10.42478516 160.2746582 33.19478516 160.2746582 56.65478516 160.2746582 C58.30478516 156.6446582 59.95478516 153.0146582 61.65478516 149.2746582 C61.01541016 148.6146582 60.37603516 147.9546582 59.71728516 147.2746582 C57.24494289 143.678524 56.42603216 140.58011637 56.65478516 136.2746582 C57.69125657 132.55076449 59.51331691 129.48686057 61.65478516 126.2746582 C60.72666016 125.5321582 60.72666016 125.5321582 59.77978516 124.7746582 C56.98342386 121.48482139 56.03087745 118.55570882 55.65478516 114.2746582 C56.47003481 109.82784189 57.66200266 106.6755474 60.65478516 103.2746582 C60.01541016 102.6559082 59.37603516 102.0371582 58.71728516 101.3996582 C55.6677151 98.25767693 55.43232883 96.31934928 55.27978516 92.0246582 C55.23080078 91.09137695 55.18181641 90.1580957 55.13134766 89.1965332 C55.85436582 85.16058104 57.62798788 82.88655181 60.65478516 80.2746582 C64.12425231 77.95331879 67.7362896 75.94987881 71.40478516 73.9621582 C73.3168055 72.90457989 75.22829393 71.84603914 77.13916016 70.78637695 C77.98188477 70.32706787 78.82460937 69.86775879 79.69287109 69.39453125 C81.59325748 68.42404255 81.59325748 68.42404255 82.65478516 67.2746582 C82.65478516 56.7146582 82.65478516 46.1546582 82.65478516 35.2746582 C51.30478516 35.2746582 19.95478516 35.2746582 -12.34521484 35.2746582 Z M-54.34521484 65.2746582 C-54.92789414 68.22210979 -54.81883044 71.03534414 -54.65771484 74.0246582 C-54.63515625 74.81743164 -54.61259766 75.61020508 -54.58935547 76.42700195 C-54.53061955 78.37703441 -54.44094138 80.32609132 -54.34521484 82.2746582 C-46.69114099 80.18254468 -42.07416802 77.76165393 -37.09521484 71.3996582 C-35.23332919 68.07486239 -34.33326448 64.94084238 -33.34521484 61.2746582 C-35.90885967 61.16620789 -38.46787763 61.08716076 -41.03271484 61.0246582 C-41.75394531 60.99114258 -42.47517578 60.95762695 -43.21826172 60.9230957 C-48.09940271 60.83394244 -51.13728692 61.21462443 -54.34521484 65.2746582 Z M-25.34521484 61.2746582 C-26.99521484 65.5646582 -28.64521484 69.8546582 -30.34521484 74.2746582 C-36.86775469 83.13546705 -43.92095576 87.17995629 -54.34521484 90.2746582 C-54.34521484 95.2246582 -54.34521484 100.1746582 -54.34521484 105.2746582 C-52.36521484 105.9552832 -50.38521484 106.6359082 -48.34521484 107.3371582 C-38.73409492 111.05624374 -33.1438155 116.22586839 -28.34521484 125.2746582 C-27.35521484 128.2446582 -26.36521484 131.2146582 -25.34521484 134.2746582 C-6.53521484 134.2746582 12.27478516 134.2746582 31.65478516 134.2746582 C31.65478516 110.1846582 31.65478516 86.0946582 31.65478516 61.2746582 C12.84478516 61.2746582 -5.96521484 61.2746582 -25.34521484 61.2746582 Z M81.85400391 76.2668457 C80.26555664 77.20077148 80.26555664 77.20077148 78.64501953 78.15356445 C77.55511719 78.81227539 76.46521484 79.47098633 75.34228516 80.1496582 C73.67842773 81.12612305 73.67842773 81.12612305 71.98095703 82.12231445 C66.52475815 84.8964597 66.52475815 84.8964597 62.65478516 89.2746582 C62.23802996 92.2325439 62.23802996 92.2325439 62.65478516 95.2746582 C64.17373322 97.37229985 64.17373322 97.37229985 66.65478516 98.2746582 C71.07578398 97.87212189 74.18528365 96.6903799 77.98291016 94.4387207 C78.94712891 93.86895508 79.91134766 93.29918945 80.90478516 92.7121582 C81.89478516 92.1140332 82.88478516 91.5159082 83.90478516 90.8996582 C84.91025391 90.30926758 85.91572266 89.71887695 86.95166016 89.1105957 C92.49667599 85.9588667 92.49667599 85.9588667 96.65478516 81.2746582 C96.31032918 76.76615638 96.31032918 76.76615638 93.65478516 73.2746582 C88.79449806 72.72570134 86.00633788 73.80469246 81.85400391 76.2668457 Z M76.46728516 102.9621582 C74.80922852 103.90091797 74.80922852 103.90091797 73.11767578 104.85864258 C72.06386719 105.47416992 71.01005859 106.08969727 69.92431641 106.72387695 C68.96114502 107.28421631 67.99797363 107.84455566 67.00561523 108.421875 C64.30981478 110.54654315 63.47612352 111.96589444 62.65478516 115.2746582 C63.50224149 118.13167527 63.50224149 118.13167527 65.65478516 120.2746582 C69.16169384 121.30561008 71.06057778 121.49888452 74.50732422 120.19824219 C77.65167607 118.3875783 80.79057963 116.57439393 83.90478516 114.7121582 C85.00564453 114.09018555 86.10650391 113.46821289 87.24072266 112.82739258 C88.29001953 112.21057617 89.33931641 111.59375977 90.42041016 110.95825195 C91.3772168 110.39678467 92.33402344 109.83531738 93.31982422 109.25683594 C96.21468392 106.7993531 96.93368869 104.97226704 97.65478516 101.2746582 C96.2460042 98.2844939 96.2460042 98.2844939 93.65478516 96.2746582 C87.0989378 95.38109057 81.8773501 99.77095313 76.46728516 102.9621582 Z M-54.34521484 113.2746582 C-54.45333488 116.02571242 -54.53256429 118.77250908 -54.59521484 121.5246582 C-54.62873047 122.30196289 -54.66224609 123.07926758 -54.69677734 123.88012695 C-54.75799284 127.46123344 -54.6993842 129.66428123 -52.87646484 132.8059082 C-49.13353412 134.9777322 -45.83706009 134.707557 -41.59521484 134.5246582 C-40.80244141 134.50661133 -40.00966797 134.48856445 -39.19287109 134.4699707 C-37.24313137 134.42298902 -35.29401606 134.35124864 -33.34521484 134.2746582 C-35.43732836 126.62058435 -37.85821912 122.00361138 -44.22021484 117.0246582 C-47.54501066 115.16277255 -50.67903067 114.26270784 -54.34521484 113.2746582 Z M77.46728516 125.8996582 C76.36191406 126.51711914 75.25654297 127.13458008 74.11767578 127.77075195 C73.06386719 128.38305664 72.01005859 128.99536133 70.92431641 129.6262207 C69.96114502 130.18132324 68.99797363 130.73642578 68.00561523 131.30834961 C65.13096851 133.712795 64.52370896 135.68319084 63.65478516 139.2746582 C65.82067361 141.9411662 65.82067361 141.9411662 68.65478516 144.2746582 C72.18383595 143.9650798 74.84923015 142.82715918 77.90478516 141.0949707 C78.67822266 140.66055664 79.45166016 140.22614258 80.24853516 139.77856445 C81.04259766 139.32352539 81.83666016 138.86848633 82.65478516 138.3996582 C83.44884766 137.95235352 84.24291016 137.50504883 85.06103516 137.04418945 C86.59123807 136.1796248 88.11818538 135.30926524 89.64135742 134.43237305 C91.29161902 133.48347763 92.95401602 132.55571622 94.61962891 131.6340332 C96.91350651 130.33013605 96.91350651 130.33013605 98.21728516 127.3996582 C98.98152848 124.19664524 98.98152848 124.19664524 97.09228516 121.3996582 C94.89753189 119.09295585 94.89753189 119.09295585 92.35668945 118.96362305 C86.83354068 119.59943144 82.18756976 123.13480087 77.46728516 125.8996582 Z M-27.34521484 142.2746582 C-27.41480052 150.27206706 -27.46806932 158.2693489 -27.50065136 166.26698589 C-27.51629107 169.98083394 -27.53749793 173.69447449 -27.5715332 177.40820312 C-27.60418779 180.99381862 -27.62208061 184.57923482 -27.62984657 188.16498756 C-27.6353792 189.53131051 -27.64618321 190.89762285 -27.66240501 192.2638607 C-27.6842576 194.18100678 -27.68544092 196.09835442 -27.68579102 198.015625 C-27.69245285 199.10594528 -27.69911469 200.19626556 -27.70597839 201.31962585 C-27.29484048 204.68727717 -26.34923381 206.56136437 -24.34521484 209.2746582 C-21.52508877 210.68472124 -19.12518758 210.44900256 -15.97119141 210.49926758 C-15.31729431 210.51065765 -14.66339722 210.52204773 -13.98968506 210.53378296 C-7.15078055 210.64440111 -0.31080193 210.69185818 6.52880859 210.73461914 C9.77283652 210.75689196 13.01571347 210.79865349 16.25927734 210.85766602 C20.17801563 210.92882043 24.09567119 210.96545972 28.01502228 210.97773743 C29.50621976 210.98812728 30.99738518 211.01052704 32.48821259 211.04533386 C40.47343971 211.44724799 40.47343971 211.44724799 47.83361816 208.94873047 C51.42848577 205.07581137 53.08480561 200.24626011 54.65478516 195.2746582 C53.88106064 195.27101257 53.10733612 195.26736694 52.31016541 195.26361084 C44.99814338 195.22565435 37.68662656 195.16871583 30.37493038 195.09075546 C26.61639159 195.05134179 22.85808493 195.01912377 19.09936523 195.00366211 C15.46806641 194.98845463 11.837406 194.95393837 8.20639229 194.90634918 C6.82506439 194.89157717 5.44364532 194.88361959 4.06223869 194.88277435 C-9.46397753 194.86618298 -9.46397753 194.86618298 -15.34521484 190.2746582 C-18.42748977 186.1649583 -19.43536851 182.30789704 -19.55053711 177.24047852 C-19.57048233 176.45997131 -19.59042755 175.67946411 -19.61097717 174.87530518 C-19.62768967 174.04287292 -19.64440216 173.21044067 -19.66162109 172.3527832 C-19.68240219 171.49279724 -19.70318329 170.63281128 -19.72459412 169.74676514 C-19.78985223 167.00614223 -19.84886401 164.26542545 -19.90771484 161.5246582 C-19.95092265 159.66397151 -19.99453766 157.80329422 -20.03857422 155.94262695 C-20.14550926 151.38673298 -20.24684335 146.8307448 -20.34521484 142.2746582 C-22.65521484 142.2746582 -24.96521484 142.2746582 -27.34521484 142.2746582 Z M78.34228516 149.0246582 C77.2459375 149.67176758 76.14958984 150.31887695 75.02001953 150.9855957 C69.11338943 154.33560669 69.11338943 154.33560669 64.65478516 159.2746582 C64.86227525 162.04119283 65.3575721 163.80537443 66.84228516 166.1496582 C69.62403926 167.8762642 71.53112769 166.99047672 74.65478516 166.2746582 C78.72037471 164.49030014 82.53824564 162.26538885 86.40478516 160.0871582 C87.45794922 159.5219043 88.51111328 158.95665039 89.59619141 158.37426758 C90.60037109 157.8115918 91.60455078 157.24891602 92.63916016 156.66918945 C93.55407227 156.16234619 94.46898437 155.65550293 95.41162109 155.13330078 C98.26117856 152.7722123 98.85277285 150.8424248 99.65478516 147.2746582 C99.41253321 144.87335988 99.41253321 144.87335988 97.65478516 143.2746582 C90.09262546 140.52763058 84.71789758 145.10237839 78.34228516 149.0246582 Z M-12.34521484 168.2746582 C-12.42682232 170.16976519 -12.48467943 172.06590324 -12.53271484 173.9621582 C-12.56751953 175.01790039 -12.60232422 176.07364258 -12.63818359 177.16137695 C-12.29459549 180.81257317 -11.7043202 182.46574371 -9.34521484 185.2746582 C-4.40960942 188.02037338 -0.374554 188.65253048 5.22314453 188.6628418 C5.94444046 188.66809875 6.66573639 188.67335571 7.40888977 188.67877197 C9.77233096 188.69188098 12.13508817 188.68326678 14.49853516 188.6730957 C16.15328093 188.67511906 17.80802582 188.67803269 19.46276855 188.68179321 C22.92253144 188.68620423 26.38206119 188.6798251 29.84179688 188.66577148 C34.26345124 188.64868021 38.6845592 188.65852798 43.10619354 188.67648888 C46.52069166 188.68735989 49.93506149 188.68386521 53.3495636 188.6761055 C54.97935553 188.67411265 56.60915932 188.67653042 58.23893738 188.68354416 C60.52174473 188.69121365 62.80368272 188.67947891 65.08642578 188.6628418 C66.38213501 188.66045502 67.67784424 188.65806824 69.01281738 188.65560913 C73.89182203 188.14526377 77.96579804 186.90540439 81.58056641 183.4152832 C82.90503959 180.77596937 82.95825298 178.96250977 82.84228516 176.0246582 C82.81521484 175.13262695 82.78814453 174.2405957 82.76025391 173.3215332 C82.70804688 172.30833008 82.70804688 172.30833008 82.65478516 171.2746582 C81.51009766 171.7387207 81.51009766 171.7387207 80.34228516 172.2121582 C74.67453683 174.45289592 70.2232424 175.31191978 64.40478516 172.9621582 C61.65478516 171.2746582 61.65478516 171.2746582 60.4115448 169.69047546 C57.67589066 167.48574224 55.25828144 167.91570159 51.79663086 167.93408203 C51.10368927 167.93364395 50.41074768 167.93320587 49.69680786 167.93275452 C47.40777348 167.93484356 45.11947274 167.95817894 42.83056641 167.98168945 C41.24302063 167.98728502 39.65546968 167.99155531 38.06791687 167.99455261 C33.89042853 168.00600453 29.71325333 168.03547448 25.53588867 168.06866455 C21.27282955 168.09935809 17.00971981 168.1130564 12.74658203 168.12817383 C4.38250607 168.16034403 -3.98131543 168.21154434 -12.34521484 168.2746582 Z " fill="#000000" transform="translate(118.34521484375,25.725341796875)"/>
<path d="M0 0 C2.625 0.9375 2.625 0.9375 5 2 C5 3.65 5 5.3 5 7 C6.19625 7.0825 7.3925 7.165 8.625 7.25 C13.04377027 7.7767929 15.51439983 9.29865987 19 12 C18.67 13.65 18.34 15.3 18 17 C13.83175551 18.190927 11.91667409 17.67857461 8 16 C2.2864404 14.70636386 -1.50762845 15.36192427 -7 17 C-7.33425735 19.37374861 -7.33425735 19.37374861 -7 22 C-3.78146418 25.21060839 -0.50891815 25.64906087 3.875 26.375 C10.75638563 27.74126264 14.19105748 29.16962383 18.375 34.875 C19.61149736 39.07909104 19.58615511 42.67343843 17.8125 46.6875 C14.845464 50.47302869 12.4430596 52.67326952 7.6875 53.75 C6.800625 53.8325 5.91375 53.915 5 54 C5.04125 54.78375 5.0825 55.5675 5.125 56.375 C5 59 5 59 3 61 C0.375 60.625 0.375 60.625 -2 60 C-2.33 58.02 -2.66 56.04 -3 54 C-4.03125 53.896875 -5.0625 53.79375 -6.125 53.6875 C-9.95083945 53.00872203 -12.63370025 51.88841205 -16 50 C-16.125 47.625 -16.125 47.625 -16 45 C-15.34 44.34 -14.68 43.68 -14 43 C-11.1314622 43.28685378 -8.41418974 43.89082313 -5.62890625 44.625 C0.25032292 46.05907453 0.25032292 46.05907453 6.0625 44.875 C9.10555426 43.32044045 9.10555426 43.32044045 9.9375 40.8125 C9.958125 40.214375 9.97875 39.61625 10 39 C6.59800388 35.93567099 3.6527821 35.39865544 -0.8125 34.6875 C-6.8544265 33.49799572 -11.20407452 32.00905631 -15 27 C-16.49142111 22.52573668 -16.74270548 18.68085977 -14.8125 14.3125 C-12.05243304 10.79103526 -9.56759973 8.41802659 -5.1875 7.25 C-4.1046875 7.12625 -4.1046875 7.12625 -3 7 C-2.87625 6.030625 -2.7525 5.06125 -2.625 4.0625 C-2.41875 3.051875 -2.2125 2.04125 -2 1 C-1.34 0.67 -0.68 0.34 0 0 Z " fill="#000000" transform="translate(118,93)"/>
<path d="M0 0 C0.625 2.375 0.625 2.375 1 5 C-1.43146302 7.43146302 -3.1963032 7.44121834 -6.50952148 7.88525391 C-20.55673405 9.78025763 -32.40528211 15.21921919 -42 26 C-49.04195535 35.40451613 -52.16231457 45.8010873 -53.5078125 57.34765625 C-54 60 -54 60 -56 62 C-58.5625 61.75 -58.5625 61.75 -61 61 C-63.97545487 55.04909026 -61.07683655 45.47385632 -59.375 39.375 C-54.69771885 25.41045555 -44.8012009 13.28125044 -32 6 C-22.46652083 1.37436081 -10.60383454 -2.73009173 0 0 Z " fill="#000000" transform="translate(92,13)"/>
<path d="M0 0 C1.125 2.3125 1.125 2.3125 2 5 C0 8 0 8 -2.46875 8.5546875 C-3.4690625 8.66039062 -4.469375 8.76609375 -5.5 8.875 C-15.19427943 10.3030196 -22.89937143 14.22373212 -29 22 C-32.72898505 27.40059903 -33.69957007 32.92208389 -34.5078125 39.36328125 C-35 42 -35 42 -37 45 C-41.875 44.125 -41.875 44.125 -43 43 C-44.13407418 32.92347203 -41.72215321 24.30166208 -35.6875 16.1875 C-26.04998385 4.70450203 -15.09354244 -0.54664741 0 0 Z " fill="#000000" transform="translate(91,30)"/>
<path d="M0 0 C0.625 2.375 0.625 2.375 1 5 C-1.38510347 7.38510347 -3.17624596 7.8048496 -6.375 8.8125 C-10.96401426 10.45400118 -13.62555803 11.54792132 -16 16 C-17.138118 18.96509691 -18.1223488 21.94816741 -19 25 C-20.65 25.33 -22.3 25.66 -24 26 C-26.46714293 22.29928561 -26.25798116 20.7354994 -25.66796875 16.48046875 C-24.12161742 10.73816995 -20.61787266 6.4021563 -16.1875 2.5625 C-10.94661723 -0.00656018 -5.72523304 -1.80046922 0 0 Z " fill="#000000" transform="translate(92,49)"/>
<path d="M0 0 C1.02996094 -0.00128906 2.05992187 -0.00257813 3.12109375 -0.00390625 C4.74724609 0.00189453 4.74724609 0.00189453 6.40625 0.0078125 C7.49035156 0.00394531 8.57445312 0.00007812 9.69140625 -0.00390625 C10.72136719 -0.00261719 11.75132812 -0.00132812 12.8125 0 C14.24045898 0.00169189 14.24045898 0.00169189 15.69726562 0.00341797 C17.90625 0.1328125 17.90625 0.1328125 18.90625 1.1328125 C19.09375 3.5703125 19.09375 3.5703125 18.90625 6.1328125 C16.41567749 8.62338501 15.62152341 8.3893938 12.1875 8.3984375 C11.25550781 8.40101563 10.32351562 8.40359375 9.36328125 8.40625 C8.38746094 8.39851562 7.41164062 8.39078125 6.40625 8.3828125 C5.43042969 8.39054688 4.45460937 8.39828125 3.44921875 8.40625 C2.51722656 8.40367187 1.58523437 8.40109375 0.625 8.3984375 C-0.23158203 8.39618164 -1.08816406 8.39392578 -1.97070312 8.39160156 C-4.09375 8.1328125 -4.09375 8.1328125 -6.09375 6.1328125 C-6.28125 3.5703125 -6.28125 3.5703125 -6.09375 1.1328125 C-4.40858046 -0.55235704 -2.30607212 0.00273231 0 0 Z " fill="#000000" transform="translate(147.09375,199.8671875)"/>
<path d="M0 0 C0.68126953 -0.01224609 1.36253906 -0.02449219 2.06445312 -0.03710938 C5.79079809 -0.04805848 7.38241571 0.06744381 10.5625 2.1875 C10.2325 4.1675 9.9025 6.1475 9.5625 8.1875 C6.60392591 8.24129226 3.64632279 8.28107093 0.6875 8.3125 C-0.57513672 8.33763672 -0.57513672 8.33763672 -1.86328125 8.36328125 C-2.66894531 8.36972656 -3.47460938 8.37617187 -4.3046875 8.3828125 C-5.04831543 8.39328613 -5.79194336 8.40375977 -6.55810547 8.41455078 C-8.4375 8.1875 -8.4375 8.1875 -10.4375 6.1875 C-10.1875 3.625 -10.1875 3.625 -9.4375 1.1875 C-6.41888236 -0.32180882 -3.30758697 0.00311156 0 0 Z " fill="#000000" transform="translate(153.4375,38.8125)"/>
</svg>
