<svg xmlns="http://www.w3.org/2000/svg" xmlns:xlink="http://www.w3.org/1999/xlink" version="1.1" x="0px" y="0px" viewBox="0 0 1042 1302.5" style="enable-background:new 0 0 1042 1042;" xml:space="preserve"><g><path d="M734.6,68H307.4c-36.6,0-66.4,29.8-66.4,66.4v773.1c0,36.6,29.8,66.4,66.4,66.4h427.1c36.6,0,66.4-29.8,66.4-66.4V134.4   C801,97.8,771.2,68,734.6,68z M766,907.6c0,17.3-14.1,31.4-31.4,31.4H307.4c-17.3,0-31.4-14.1-31.4-31.4v-50.1h206.2   c3.5,17.7,19.1,31,37.8,31s34.3-13.3,37.8-31H766V907.6z M496.5,850c0-13,10.5-23.5,23.5-23.5s23.5,10.5,23.5,23.5   S533,873.5,520,873.5S496.5,863,496.5,850z M766,842.5H557.8c-3.5-17.7-19.1-31-37.8-31s-34.3,13.3-37.8,31H276v-642h490V842.5z    M766,185.5H276v-51.1c0-17.3,14.1-31.4,31.4-31.4h427.1c17.3,0,31.4,14.1,31.4,31.4V185.5z"/><rect x="459" y="142.5" width="124" height="15"/><path d="M361.4,601.2c12.3,24.3,30.1,45.8,51.9,62.4c31.2,23.6,68.5,36.1,107.8,36.1c98.5,0,178.7-80.1,178.7-178.7h-35   c0,79.2-64.4,143.7-143.7,143.7c-31.6,0-61.5-10-86.6-29c-17.6-13.3-32-30.7-41.8-50.3l4.4,1.6l12-32.9l-49.1-18l-14.5,6.7   l-18,49.1l32.9,12L361.4,601.2z"/><path d="M521.1,377.3c30,0,58.7,9.1,83,26.4c16.4,11.6,29.9,26.2,40.1,43.1l-3.2-1.2l-12,32.9l49.1,18l14.5-6.7l18-49.1l-32.9-12   l-1.3,3.6c-12.8-22.5-30.4-41.9-51.9-57.1c-30.3-21.5-66-32.8-103.2-32.8c-98.5,0-178.7,80.1-178.7,178.7h35   C377.4,441.8,441.9,377.3,521.1,377.3z"/></g><text x="0" y="1057" fill="#000000" font-size="5px" font-weight="bold" font-family="'Helvetica Neue', Helvetica, Arial-Unicode, Arial, Sans-serif">Created by Aulia Rahman</text><text x="0" y="1062" fill="#000000" font-size="5px" font-weight="bold" font-family="'Helvetica Neue', Helvetica, Arial-Unicode, Arial, Sans-serif">from the Noun Project</text></svg>