<svg xmlns="http://www.w3.org/2000/svg" viewBox="0 0 64 80" x="0px" y="0px">
    <g data-name="Layer 5">
        <path d="M17,50a1,1,0,0,0,0,2H27a1,1,0,0,0,0-2Z"/>
        <path d="M55,19H36V13a5,5,0,0,0-5-5H13a5,5,0,0,0-5,5V51a5,5,0,0,0,5,5H31a5,5,0,0,0,5-5V45H55a1,1,0,0,0,1-1V20A1,1,0,0,0,55,19ZM48.08,43H23V21H48.08A7,7,0,0,0,54,26.92V37.08A7,7,0,0,0,48.08,43ZM54,21v3.9A5,5,0,0,1,50.1,21ZM26,10v1a1,1,0,0,1-1,1H19a1,1,0,0,1-1-1V10Zm8,41a3,3,0,0,1-3,3H13a3,3,0,0,1-3-3V13a3,3,0,0,1,3-3h3v1a3,3,0,0,0,3,3h6a3,3,0,0,0,3-3V10h3a3,3,0,0,1,3,3v6H23V17a1,1,0,0,0-2,0V47a1,1,0,0,0,2,0V45H34Zm20-8H50.1A5,5,0,0,1,54,39.1Z"/>
        <path d="M33,24a8,8,0,1,0,8,8A8,8,0,0,0,33,24Zm0,14a6,6,0,1,1,6-6A6,6,0,0,1,33,38Z"/>
    </g>
</svg>