<?xml version="1.0" encoding="UTF-8"?>
<svg version="1.1" viewBox="0 0 1600 1600" width="1280" height="1280" xmlns="http://www.w3.org/2000/svg">
<path transform="translate(717,338)" d="m0 0h23l51 1 74 4 29 2 31 1 23 2 20 4 16 5 15 6 16 9 14 10 11 9 7 8 9 10 10 15 10 19 8 22 5 22 3 20v5l-1 1-557 1-10 3-8 6-5 6-4 10v16l4 11 6 8 9 5 6 2 12 1 175 1 164 2 215 1 22 1 24 4 21 6 21 9 15 8 12 8 13 10 12 11 11 11 11 14 10 15 11 21 8 21 6 23 3 23v29l-15 184-5 60-4 26-6 23-7 19-8 18-8 14-10 15-10 13-11 12-16 16-17 13-15 10-24 13-25 10-23 7-25 5-28 3h-471l-31-3-25-5-27-8-22-9-19-9-20-12-14-10-10-8-10-9-8-7-9-9-7-8-12-15-12-18-9-16-8-16-10-25-7-25-5-25-3-27v-398l2-23 5-30 6-24 9-27 10-22 12-21 12-17 9-11 11-12 14-13 16-12 13-8 14-8 21-9 26-8 26-5 20-2 90-6 46-2zm355 462-12 3-10 5-10 8-8 11-5 11-2 11v10l4 16 7 12 9 10 1 36 3 10 6 9 8 6 13 4h8l11-4 8-6 6-8 3-10 1-37 7-7 6-9 4-8 3-12v-14l-3-12-6-12-10-11-11-7-12-4-6-1z" fill="#00ADD6"/>
</svg>
